<svg width="36" height="36" viewBox="0 0 36 36" fill="none" xmlns="http://www.w3.org/2000/svg">
<path d="M20 33.9999V35.4999H21.5V33.9999H20ZM2 33.9999H0.5V35.4999H2V33.9999ZM2 7.81995L1.17999 6.55994L0.5 6.99994V7.81995H2ZM11 1.99994L11.81 0.739929L11 0.209961L10.18 0.739929L11 1.99994ZM20 7.81995H21.5V6.99994L20.81 6.55994L20 7.81995ZM20 32.4999H2V35.4999H20V32.4999ZM3.5 33.9999V7.81995H0.5V33.9999H3.5ZM2.81 9.07996L11.81 3.25995L10.18 0.769958L1.17999 6.58997L2.81 9.10999V9.07996ZM10.18 3.25995L19.18 9.07996L20.81 6.55994L11.81 0.739929L10.18 3.25995ZM18.5 7.81995V33.9999H21.5V7.81995H18.5Z" fill="#5C5856"/>
<path d="M9 29V27.5H7.5V29H9ZM12 29H13.5V27.5H12V29ZM12 34V35.5H13.5V34H12ZM9 34H7.5V35.5H9V34ZM9 30.5H12V27.5H9V30.5ZM10.5 29V34H13.5V29H10.5ZM12 32.5H9V35.5H12V32.5ZM10.5 34V29H7.5V34H10.5Z" fill="#5C5856"/>
<path d="M34 33.9999V35.4999H35.5V33.9999H34ZM20 33.9999H18.5V35.4999H20V33.9999ZM20 13.42L19.2 12.15L18.5 12.59V13.42H20ZM27 8.99994L27.8 7.72998L27 7.21997L26.2 7.72998L27 8.99994ZM34 13.42H35.5V12.59L34.8 12.15L34 13.42ZM34 32.4999H20V35.4999H34V32.4999ZM21.5 33.9999V13.42H18.5V33.9999H21.5ZM20.8 14.6899L27.8 10.27L26.2 7.76996L19.2 12.1899L20.8 14.73V14.6899ZM26.2 10.27L33.2 14.6899L34.8 12.15L27.8 7.72998L26.2 10.27ZM32.5 13.42V33.9999H35.5V13.42H32.5Z" fill="#5C5856"/>
</svg>
