<svg width="35" height="37" viewBox="0 0 35 37" fill="none" xmlns="http://www.w3.org/2000/svg">
<path fill-rule="evenodd" clip-rule="evenodd" d="M26.71 32.37C26.7113 32.6734 26.6528 32.974 26.538 33.2548C26.4231 33.5355 26.2541 33.7909 26.0405 34.0063C25.827 34.2218 25.573 34.3931 25.2932 34.5104C25.0135 34.6277 24.7134 34.6887 24.41 34.69H10.59C9.9736 34.6874 9.38302 34.4428 8.94531 34.0089C8.50761 33.5749 8.25786 32.9863 8.25 32.37V14.6L17.5 3.39001L26.75 14.56V32.37H26.71ZM17.5 0L0.150024 20.41L1.77002 22.05L5.93994 17.34V32.34C5.94785 33.569 6.44099 34.7451 7.31189 35.6122C8.18279 36.4794 9.36097 36.9674 10.59 36.97H24.41C25.639 36.9674 26.8172 36.4794 27.6881 35.6122C28.559 34.7451 29.0521 33.569 29.0601 32.34V17.34L33.23 22.05L34.85 20.41L17.5 0Z" fill="#4C4846"/>
</svg>
