<svg width="34" height="34" viewBox="0 0 34 34" fill="none" xmlns="http://www.w3.org/2000/svg">
<path d="M11.5 21.0599C11.2444 20.774 10.889 20.5969 10.5069 20.5649C10.1248 20.5329 9.7449 20.6485 9.44533 20.8879C9.14577 21.1273 8.94927 21.4724 8.8962 21.8521C8.84313 22.2319 8.93754 22.6176 9.16001 22.9299L11.5 21.0599ZM24.84 22.9299C25.088 22.6183 25.202 22.2209 25.157 21.8252C25.112 21.4295 24.9116 21.0679 24.6 20.8199C24.2884 20.5719 23.891 20.4579 23.4953 20.503C23.0996 20.548 22.738 20.7483 22.49 21.0599L24.84 22.9299ZM10.33 21.9999L9.16001 22.9399L9.27 23.0799L9.69001 23.5199C10.1667 23.9949 10.6818 24.4296 11.23 24.8199C12.8841 26.0482 14.8801 26.7299 16.94 26.7699V23.7699C15.4935 23.74 14.0934 23.2535 12.94 22.3799C12.5267 22.0749 12.1357 21.7407 11.77 21.3799L11.48 21.0699L11.41 20.9899L10.24 21.9299L10.33 21.9999ZM17 26.8299C19.0571 26.7918 21.0506 26.1098 22.7 24.8799C23.2531 24.492 23.7717 24.057 24.25 23.5799L24.67 23.1399L24.78 22.9999L23.61 22.0599L22.44 21.1199L22.37 21.1999L22.08 21.5099C21.7143 21.8707 21.3233 22.2049 20.91 22.5099C19.7566 23.3835 18.3566 23.87 16.91 23.8999V26.8999L17 26.8299ZM3.50001 21.3299V17.2099H0.500007V21.3299H3.50001ZM3.50001 17.2099C3.42197 16.093 3.48582 14.9707 3.69001 13.8699L0.80001 13.0599C0.517969 14.424 0.417096 15.8194 0.500007 17.2099H3.50001ZM3.69001 13.8699C3.85856 13.2646 4.13647 12.6952 4.51001 12.1899L2.10001 10.3999C1.50944 11.2007 1.06898 12.1019 0.80001 13.0599L3.69001 13.8699ZM4.51001 12.1899C5.2573 11.35 6.10731 10.6076 7.04001 9.97995L5.2 7.60995C4.04645 8.39701 3.0038 9.33537 2.10001 10.3999L4.51001 12.1899ZM7.04001 9.97995L11.37 6.60995L9.53001 4.2399L5.2 7.60995L7.04001 9.97995ZM11.37 6.60995C13.82 4.69995 14.72 4.03994 15.65 3.78994L14.87 0.88992C13.21 1.33992 11.76 2.4999 9.53001 4.2399L11.37 6.60995ZM15.65 3.78994C16.534 3.54982 17.466 3.54982 18.35 3.78994L19.13 0.88992C17.7341 0.519766 16.2659 0.519766 14.87 0.88992L15.65 3.78994ZM18.35 3.78994C19.28 4.03994 20.18 4.69995 22.63 6.60995L24.47 4.2399C22.24 2.4999 20.79 1.33992 19.13 0.88992L18.35 3.78994ZM22.63 6.60995L26.96 9.97995L28.8 7.60995L24.47 4.2399L22.63 6.60995ZM26.96 9.97995C27.8927 10.6076 28.7427 11.35 29.49 12.1899L31.9 10.3999C30.9962 9.33537 29.9536 8.39701 28.8 7.60995L27 9.97995H26.96ZM29.49 12.1899C29.8635 12.6952 30.1415 13.2646 30.31 13.8699L33.2 13.0599C32.931 12.1019 32.4906 11.2007 31.9 10.3999L29.49 12.1899ZM30.31 13.8699C30.5142 14.9707 30.578 16.093 30.5 17.2099H33.5C33.5825 15.8194 33.4816 14.4241 33.2 13.0599L30.31 13.8699ZM30.5 17.2099V21.3299H33.5V17.2099H30.5ZM30.5 21.3299C30.5 23.2199 30.5 24.5499 30.41 25.5899C30.3893 26.3104 30.2297 27.02 29.94 27.6799L32.61 29.0399C33.0885 28.0347 33.3573 26.9425 33.4 25.8299C33.5 24.6399 33.5 23.1699 33.5 21.3299H30.5ZM29.94 27.6799C29.4426 28.6493 28.6516 29.4368 27.68 29.9299L29.04 32.61C30.5775 31.8273 31.8273 30.5774 32.61 29.0399L29.94 27.6799ZM27.68 29.9299C27.0226 30.2285 26.3118 30.3918 25.59 30.4099C24.59 30.4999 23.22 30.4999 21.33 30.4999V33.4999C23.17 33.4999 24.65 33.4999 25.83 33.3999C26.9419 33.3524 28.0331 33.0838 29.04 32.61L27.68 29.9299ZM21.33 30.4999H12.67V33.4999H21.33V30.4999ZM12.67 30.4999C10.78 30.4999 9.45001 30.4999 8.41001 30.4099C7.68819 30.3918 6.9774 30.2285 6.32001 29.9299L5.00001 32.61C6.00694 33.0838 7.09817 33.3524 8.21001 33.3999C9.39001 33.4999 10.86 33.4999 12.71 33.4999V30.4999H12.67ZM6.32001 29.9299C5.3484 29.4368 4.55742 28.6493 4.06 27.6799L1.39001 29.0399C2.17269 30.5774 3.42253 31.8273 4.96001 32.61L6.32001 29.9299ZM4.06 27.6799C3.77031 27.02 3.61072 26.3104 3.59 25.5899C3.5 24.5899 3.50001 23.2199 3.50001 21.3299H0.500007C0.500007 23.1699 0.500006 24.6399 0.600006 25.8299C0.642689 26.9425 0.911485 28.0347 1.39001 29.0399L4.06 27.6799Z" fill="#5C5856"/>
</svg>
