<svg width="41" height="93" viewBox="0 0 41 93" fill="none" xmlns="http://www.w3.org/2000/svg">
<path d="M38.7025 59.0682H2.29736C2.05655 59.0682 1.82556 58.9725 1.65527 58.8022C1.48499 58.632 1.3894 58.4011 1.3894 58.1603C1.3894 57.9195 1.48499 57.6885 1.65527 57.5182C1.82556 57.3479 2.05655 57.2522 2.29736 57.2522H38.7025C38.9433 57.2522 39.1743 57.3479 39.3446 57.5182C39.5149 57.6885 39.6105 57.9195 39.6105 58.1603C39.6105 58.4011 39.5149 58.632 39.3446 58.8022C39.1743 58.9725 38.9433 59.0682 38.7025 59.0682ZM37.7228 91.9233H3.27686V60.1455H37.7228V91.9233ZM37.7228 47.6722V56.1752H3.27686V47.6722H37.7228ZM1.38916 45.6871C1.38947 45.4464 1.48526 45.2156 1.65552 45.0454C1.82578 44.8752 2.05662 44.7795 2.29736 44.7793H38.7025C38.9434 44.7793 39.1743 44.8749 39.3446 45.0452C39.5149 45.2155 39.6106 45.4465 39.6106 45.6874C39.6106 45.9282 39.5149 46.1592 39.3446 46.3295C39.1743 46.4998 38.9434 46.5955 38.7025 46.5955H2.29736C2.05655 46.5952 1.82566 46.4994 1.6554 46.3291C1.48513 46.1588 1.38938 45.9279 1.38916 45.6871ZM36.0353 38.1888V43.7023H4.9646V38.1888H36.0353ZM3.27686 36.2036C3.27711 35.9628 3.37285 35.732 3.54309 35.5618C3.71333 35.3915 3.94417 35.2958 4.18494 35.2955H36.8153C37.0556 35.2963 37.2859 35.3924 37.4556 35.5626C37.6252 35.7328 37.7205 35.9634 37.7205 36.2037C37.7205 36.4441 37.6252 36.6745 37.4556 36.8447C37.2859 37.015 37.0556 37.111 36.8153 37.1118H4.18518C3.94438 37.1116 3.7135 37.0158 3.54321 36.8456C3.37292 36.6753 3.27712 36.4444 3.27686 36.2036ZM8.15283 28.817C8.1983 28.7362 8.22218 28.6451 8.22217 28.5524V22.5974H11.3455C11.4409 22.5975 11.5346 22.5721 11.6171 22.5239C11.6995 22.4758 11.7676 22.4067 11.8145 22.3235L20.4999 6.9209L29.1857 22.3235C29.2326 22.4066 29.3007 22.4757 29.3831 22.5238C29.4654 22.5719 29.5591 22.5974 29.6545 22.5974H32.778V28.5524C32.7778 28.6451 32.8019 28.7364 32.8477 28.817L35.8936 34.2188H5.10693L8.15283 28.817ZM38.8003 56.1801V47.6678C39.3176 47.6428 39.8046 47.4163 40.1572 47.037C40.5098 46.6576 40.7001 46.1553 40.6874 45.6376C40.6746 45.1198 40.4599 44.6276 40.0891 44.266C39.7183 43.9044 39.2207 43.7023 38.7028 43.7026H37.1127V38.1646C37.5792 38.0944 38.0054 37.8602 38.3147 37.504C38.624 37.1479 38.7962 36.693 38.8003 36.2213C38.8044 35.7496 38.6401 35.2919 38.337 34.9304C38.0339 34.5689 37.6118 34.3274 37.1466 34.2491L33.855 28.4116V22.0593C33.8549 21.9165 33.7982 21.7794 33.6971 21.6785C33.5961 21.5775 33.4591 21.5208 33.3163 21.5208H29.9689L21.0387 5.68335V0.538452C21.0378 0.396202 20.9808 0.260071 20.8799 0.15979C20.779 0.0595088 20.6425 0.0032959 20.5002 0.0032959C20.358 0.0032959 20.2215 0.0595088 20.1206 0.15979C20.0197 0.260071 19.9625 0.396202 19.9617 0.538452V5.68274L11.0311 21.5201H7.68396C7.54116 21.5202 7.40419 21.577 7.30322 21.678C7.20225 21.779 7.14554 21.9158 7.14551 22.0586V28.411L3.85364 34.2485C3.38843 34.3268 2.9663 34.5683 2.66321 34.9298C2.36012 35.2913 2.19585 35.7491 2.19995 36.2208C2.20405 36.6925 2.37622 37.1473 2.68555 37.5034C2.99488 37.8596 3.42107 38.0938 3.88757 38.1639V43.702H2.29736C1.77944 43.7017 1.28196 43.9038 0.911133 44.2654C0.540304 44.6269 0.325602 45.1192 0.312866 45.637C0.300131 46.1547 0.490413 46.657 0.843018 47.0364C1.19562 47.4157 1.68252 47.6421 2.19983 47.6672V56.1794C1.69105 56.2038 1.2112 56.4231 0.859741 56.7917C0.508278 57.1604 0.312256 57.6503 0.312256 58.1597C0.312256 58.669 0.508278 59.1588 0.859741 59.5275C1.2112 59.8961 1.69105 60.1154 2.19983 60.1398V92.4613C2.19983 92.6041 2.25657 92.7411 2.35754 92.842C2.45852 92.943 2.59547 92.9999 2.73828 92.9999H38.2614C38.3321 92.9999 38.4022 92.9859 38.4675 92.9589C38.5329 92.9318 38.5923 92.8922 38.6423 92.8422C38.6924 92.7922 38.732 92.7327 38.759 92.6674C38.7861 92.602 38.8002 92.532 38.8002 92.4613V60.1404C39.309 60.1161 39.7889 59.8969 40.1404 59.5282C40.4919 59.1595 40.6881 58.6698 40.6881 58.1604C40.6881 57.651 40.4921 57.1611 40.1406 56.7924C39.7891 56.4237 39.3091 56.2044 38.8003 56.1801Z" fill="black"/>
<path d="M7.67102 64.2284H10.6124V69.9021H7.67102V64.2284ZM7.13269 70.9795H11.1511C11.2219 70.9795 11.2918 70.9656 11.3572 70.9385C11.4225 70.9114 11.4819 70.8717 11.5319 70.8217C11.5819 70.7716 11.6215 70.7123 11.6486 70.647C11.6756 70.5816 11.6896 70.5115 11.6896 70.4408V63.6897C11.6895 63.5469 11.6328 63.4099 11.5319 63.309C11.4309 63.208 11.2939 63.1512 11.1511 63.1511H7.13269C6.98989 63.1512 6.85292 63.208 6.75195 63.309C6.65098 63.4099 6.59427 63.5469 6.59424 63.6897V70.4408C6.59422 70.5115 6.60808 70.5816 6.63513 70.647C6.66218 70.7123 6.70183 70.7716 6.75183 70.8217C6.80183 70.8717 6.86129 70.9114 6.92664 70.9385C6.99198 70.9656 7.06196 70.9795 7.13269 70.9795Z" fill="black"/>
<path d="M19.0291 64.2284H21.9703V69.9021H19.0291V64.2284ZM18.4906 70.9795H22.509C22.6519 70.9794 22.7889 70.9227 22.8899 70.8217C22.9909 70.7206 23.0477 70.5836 23.0477 70.4408V63.6897C23.0476 63.5469 22.9908 63.4099 22.8898 63.309C22.7888 63.208 22.6518 63.1512 22.509 63.1511H18.4906C18.3478 63.1512 18.2108 63.208 18.1099 63.309C18.0089 63.4099 17.9522 63.5469 17.9521 63.6897V70.4408C17.9521 70.5115 17.966 70.5816 17.993 70.647C18.0201 70.7123 18.0597 70.7716 18.1097 70.8217C18.1597 70.8717 18.2192 70.9114 18.2845 70.9385C18.3499 70.9656 18.4199 70.9795 18.4906 70.9795Z" fill="black"/>
<path d="M30.3872 64.2284H33.3286V69.9021H30.3872V64.2284ZM29.8485 70.9795H33.8668C33.9376 70.9795 34.0076 70.9655 34.073 70.9385C34.1384 70.9114 34.1978 70.8718 34.2478 70.8218C34.2978 70.7718 34.3374 70.7123 34.3645 70.647C34.3916 70.5816 34.4055 70.5115 34.4055 70.4408V63.6897C34.4055 63.5469 34.3487 63.4098 34.2477 63.3088C34.1467 63.2079 34.0097 63.1511 33.8668 63.1511H29.8485C29.7778 63.1511 29.7078 63.1651 29.6425 63.1921C29.5771 63.2192 29.5179 63.2588 29.4679 63.3088C29.4179 63.3588 29.3782 63.4183 29.3512 63.4836C29.3242 63.549 29.3103 63.619 29.3103 63.6897V70.4408C29.3102 70.5115 29.3241 70.5816 29.3511 70.647C29.3781 70.7123 29.4178 70.7716 29.4678 70.8217C29.5178 70.8717 29.5771 70.9114 29.6425 70.9385C29.7078 70.9656 29.7778 70.9795 29.8485 70.9795Z" fill="black"/>
<path d="M6.06714 51.1465C6.06804 50.8412 6.18998 50.5488 6.40613 50.3333C6.62229 50.1177 6.91498 49.9967 7.22022 49.9967C7.52546 49.9967 7.81827 50.1177 8.03443 50.3333C8.25059 50.5488 8.37252 50.8412 8.37342 51.1465V53.8538H6.06714V51.1465ZM5.52845 54.9309H8.91163C8.98236 54.9309 9.05245 54.917 9.1178 54.8899C9.18316 54.8628 9.24247 54.8231 9.29249 54.7731C9.3425 54.723 9.38225 54.6637 9.40931 54.5984C9.43636 54.533 9.45022 54.463 9.4502 54.3922V51.1465C9.45082 50.8532 9.39366 50.5627 9.28187 50.2916C9.17007 50.0205 9.00586 49.7741 8.79871 49.5665C8.59156 49.3589 8.34547 49.1943 8.07459 49.0819C7.80371 48.9695 7.51336 48.9116 7.2201 48.9116C6.92684 48.9116 6.63648 48.9695 6.36561 49.0819C6.09473 49.1943 5.84863 49.3589 5.64148 49.5665C5.43434 49.7741 5.27025 50.0205 5.15845 50.2916C5.04666 50.5627 4.98937 50.8532 4.99 51.1465V54.3922C4.98997 54.4629 5.00384 54.533 5.03089 54.5984C5.05794 54.6637 5.09759 54.723 5.14759 54.7731C5.19759 54.8231 5.25705 54.8628 5.32239 54.8899C5.38773 54.917 5.45772 54.9309 5.52845 54.9309Z" fill="black"/>
<path d="M12.7068 51.1465C12.7077 50.8412 12.8296 50.5488 13.0458 50.3333C13.2619 50.1177 13.5547 49.9967 13.86 49.9967C14.1652 49.9967 14.4579 50.1177 14.6741 50.3333C14.8902 50.5488 15.0122 50.8412 15.0131 51.1465V53.8538H12.7068V51.1465ZM12.1683 54.9309H15.5515C15.6223 54.9309 15.6923 54.917 15.7577 54.8899C15.823 54.8628 15.8824 54.8231 15.9324 54.7731C15.9824 54.723 16.0221 54.6637 16.0492 54.5984C16.0763 54.533 16.0901 54.463 16.0901 54.3922V51.1465C16.0907 50.8532 16.0334 50.5627 15.9216 50.2916C15.8098 50.0205 15.6457 49.7741 15.4386 49.5665C15.2315 49.3589 14.9854 49.1943 14.7145 49.0819C14.4436 48.9695 14.1532 48.9116 13.86 48.9116C13.5667 48.9116 13.2764 48.9695 13.0055 49.0819C12.7346 49.1943 12.4885 49.3589 12.2814 49.5665C12.0742 49.7741 11.9101 50.0205 11.7983 50.2916C11.6865 50.5627 11.6293 50.8532 11.6299 51.1465V54.3922C11.6299 54.535 11.6866 54.672 11.7876 54.7731C11.8886 54.8741 12.0255 54.9309 12.1683 54.9309Z" fill="black"/>
<path d="M19.3472 51.1465C19.3481 50.8412 19.47 50.5488 19.6862 50.3333C19.9023 50.1177 20.1951 49.9967 20.5004 49.9967C20.8056 49.9967 21.0983 50.1177 21.3145 50.3333C21.5306 50.5488 21.6525 50.8412 21.6534 51.1465V53.8538H19.3472V51.1465ZM18.8085 54.9309H22.1917C22.2624 54.9309 22.3324 54.917 22.3977 54.8899C22.463 54.8628 22.5225 54.8231 22.5725 54.7731C22.6225 54.723 22.6621 54.6637 22.6891 54.5984C22.7161 54.533 22.73 54.4629 22.73 54.3922V51.1465C22.73 50.5551 22.495 49.9878 22.0768 49.5696C21.6586 49.1514 21.0914 48.9165 20.5 48.9165C19.9086 48.9165 19.3413 49.1514 18.9231 49.5696C18.5049 49.9878 18.27 50.5551 18.27 51.1465V54.3922C18.27 54.4629 18.2839 54.533 18.3109 54.5984C18.338 54.6637 18.3776 54.723 18.4276 54.7731C18.4776 54.8231 18.5371 54.8628 18.6024 54.8899C18.6678 54.917 18.7377 54.9309 18.8085 54.9309Z" fill="black"/>
<path d="M25.9868 51.1465C25.9877 50.8412 26.1097 50.5488 26.3258 50.3333C26.542 50.1177 26.8348 49.9967 27.14 49.9967C27.4453 49.9967 27.7379 50.1177 27.9541 50.3333C28.1703 50.5488 28.2922 50.8412 28.2931 51.1465V53.8538H25.9865L25.9868 51.1465ZM25.4484 54.9309H28.8315C28.9023 54.9309 28.9724 54.917 29.0377 54.8899C29.1031 54.8628 29.1625 54.8232 29.2125 54.7732C29.2626 54.7232 29.3022 54.6638 29.3292 54.5984C29.3563 54.533 29.3703 54.463 29.3702 54.3922V51.1465C29.3709 50.8532 29.3136 50.5626 29.2018 50.2915C29.09 50.0204 28.9258 49.774 28.7186 49.5664C28.5115 49.3588 28.2654 49.194 27.9945 49.0817C27.7236 48.9693 27.4333 48.9115 27.14 48.9115C26.8467 48.9115 26.5563 48.9693 26.2854 49.0817C26.0145 49.194 25.7684 49.3588 25.5613 49.5664C25.3541 49.774 25.1899 50.0204 25.0781 50.2915C24.9663 50.5626 24.9091 50.8532 24.9097 51.1465V54.3922C24.9097 54.5351 24.9665 54.6721 25.0675 54.7731C25.1685 54.8741 25.3055 54.9309 25.4484 54.9309Z" fill="black"/>
<path d="M32.6265 51.1465C32.6292 50.8425 32.7518 50.5518 32.9678 50.3378C33.1837 50.1237 33.4754 50.0037 33.7794 50.0037C34.0835 50.0037 34.3751 50.1237 34.5911 50.3378C34.807 50.5518 34.9297 50.8425 34.9324 51.1465V53.8538H32.6263L32.6265 51.1465ZM32.0878 54.9309H35.4714C35.5422 54.9309 35.6122 54.917 35.6775 54.8899C35.7428 54.8628 35.8023 54.8231 35.8523 54.7731C35.9023 54.723 35.9418 54.6637 35.9689 54.5984C35.9959 54.533 36.0098 54.4629 36.0098 54.3922V51.1465C36.0104 50.8532 35.9532 50.5627 35.8414 50.2916C35.7296 50.0205 35.5654 49.7741 35.3583 49.5665C35.1511 49.3589 34.905 49.1943 34.6342 49.0819C34.3633 48.9695 34.0729 48.9116 33.7797 48.9116C33.4864 48.9116 33.1961 48.9695 32.9252 49.0819C32.6543 49.1943 32.4082 49.3589 32.2011 49.5665C31.9939 49.7741 31.8298 50.0205 31.718 50.2916C31.6062 50.5627 31.5489 50.8532 31.5496 51.1465V54.3922C31.5495 54.535 31.6062 54.6719 31.7072 54.7729C31.8081 54.874 31.945 54.9308 32.0878 54.9309Z" fill="black"/>
<path d="M8.87012 40.064H10.0551V42.0946H8.87012V40.064ZM8.33167 43.1716H10.5936C10.7364 43.1716 10.8734 43.1149 10.9744 43.0139C11.0753 42.9129 11.1321 42.776 11.1321 42.6332V39.5255C11.1321 39.3827 11.0753 39.2456 10.9744 39.1447C10.8734 39.0437 10.7364 38.9869 10.5936 38.9869H8.33167C8.18885 38.9869 8.05191 39.0437 7.95093 39.1447C7.84995 39.2456 7.79321 39.3827 7.79321 39.5255V42.6332C7.79319 42.7039 7.80705 42.7739 7.83411 42.8392C7.86116 42.9046 7.90092 42.9639 7.95093 43.0139C8.00093 43.0639 8.06027 43.1037 8.12561 43.1307C8.19095 43.1578 8.26095 43.1716 8.33167 43.1716Z" fill="black"/>
<path d="M14.3887 40.064H15.5736V42.0946H14.3887V40.064ZM13.8502 43.1716H16.1122C16.255 43.1716 16.3919 43.1149 16.4929 43.0139C16.5939 42.9129 16.6506 42.776 16.6506 42.6332V39.5255C16.6506 39.4548 16.6368 39.3848 16.6097 39.3195C16.5827 39.2541 16.5429 39.1947 16.4929 39.1447C16.4429 39.0946 16.3836 39.055 16.3182 39.028C16.2529 39.0009 16.1829 38.9869 16.1122 38.9869H13.8502C13.7074 38.9869 13.5705 39.0437 13.4695 39.1447C13.3685 39.2456 13.3118 39.3827 13.3118 39.5255V42.6332C13.3118 42.776 13.3685 42.9129 13.4695 43.0139C13.5705 43.1149 13.7074 43.1716 13.8502 43.1716Z" fill="black"/>
<path d="M19.9077 40.064H21.0929V42.0946H19.9077V40.064ZM19.369 43.1716H21.6311C21.7739 43.1716 21.9108 43.1148 22.0117 43.0138C22.1127 42.9128 22.1694 42.776 22.1694 42.6332V39.5255C22.1694 39.3827 22.1128 39.2458 22.0118 39.1448C21.9109 39.0438 21.7739 38.987 21.6311 38.9869H19.369C19.2262 38.9869 19.0893 39.0437 18.9883 39.1447C18.8873 39.2456 18.8306 39.3827 18.8306 39.5255V42.6332C18.8306 42.7039 18.8445 42.7739 18.8716 42.8392C18.8986 42.9046 18.9383 42.9639 18.9883 43.0139C19.0383 43.0639 19.0976 43.1036 19.163 43.1306C19.2283 43.1577 19.2983 43.1716 19.369 43.1716Z" fill="black"/>
<path d="M25.4263 40.064H26.6112V42.0946H25.4263V40.064ZM24.8878 43.1716H27.1495C27.2203 43.1717 27.2904 43.1577 27.3557 43.1306C27.4211 43.1036 27.4804 43.0639 27.5304 43.0139C27.5804 42.9639 27.6201 42.9046 27.6472 42.8392C27.6743 42.7739 27.6882 42.7039 27.6882 42.6332V39.5255C27.6882 39.4548 27.6743 39.3847 27.6472 39.3193C27.6201 39.254 27.5804 39.1947 27.5304 39.1447C27.4804 39.0946 27.4211 39.055 27.3557 39.028C27.2904 39.0009 27.2203 38.9869 27.1495 38.9869H24.8878C24.8171 38.9869 24.747 39.0009 24.6816 39.028C24.6163 39.055 24.557 39.0946 24.507 39.1447C24.4569 39.1947 24.4172 39.254 24.3901 39.3193C24.3631 39.3847 24.3491 39.4548 24.3491 39.5255V42.6332C24.3491 42.7039 24.3631 42.7739 24.3901 42.8392C24.4172 42.9046 24.4569 42.9639 24.507 43.0139C24.557 43.0639 24.6163 43.1037 24.6816 43.1307C24.747 43.1578 24.8171 43.1717 24.8878 43.1716Z" fill="black"/>
<path d="M30.9451 40.064H32.13V42.0946H30.9451V40.064ZM30.4069 43.1716H32.6686C32.7393 43.1717 32.8094 43.1577 32.8748 43.1306C32.9401 43.1036 32.9995 43.0639 33.0496 43.0139C33.0996 42.9639 33.1392 42.9046 33.1663 42.8392C33.1933 42.7739 33.2073 42.7039 33.2073 42.6332V39.5255C33.2073 39.4548 33.1933 39.3847 33.1663 39.3193C33.1392 39.254 33.0996 39.1947 33.0496 39.1447C32.9995 39.0946 32.9401 39.055 32.8748 39.028C32.8094 39.0009 32.7393 38.9869 32.6686 38.9869H30.4069C30.3361 38.9869 30.2662 39.0009 30.2008 39.028C30.1355 39.055 30.076 39.0946 30.026 39.1447C29.976 39.1947 29.9363 39.254 29.9092 39.3193C29.8821 39.3847 29.8682 39.4548 29.8682 39.5255V42.6332C29.8682 42.776 29.925 42.9129 30.026 43.0139C30.127 43.1149 30.264 43.1716 30.4069 43.1716Z" fill="black"/>
</svg>
