<svg width="40" height="93" viewBox="0 0 40 93" fill="none" xmlns="http://www.w3.org/2000/svg">
<path d="M4.5 72V43H3.5V72H4.5ZM34 71.5H4V72.5H34V71.5ZM33.5 43V72H34.5V43H33.5ZM4 43.5H34V42.5H4V43.5ZM4 72H3.5C3.5 72.1326 3.55266 72.2597 3.64642 72.3535C3.74019 72.4473 3.86739 72.5 4 72.5V72ZM34 72V72.5C34.1326 72.5 34.2598 72.4473 34.3536 72.3535C34.4473 72.2597 34.5 72.1326 34.5 72H34ZM34 43H34.5C34.5 42.8674 34.4473 42.7403 34.3536 42.6465C34.2598 42.5527 34.1326 42.5 34 42.5V43ZM4 43V42.5C3.86739 42.5 3.74019 42.5527 3.64642 42.6465C3.55266 42.7403 3.5 42.8674 3.5 43H4Z" fill="black"/>
<path d="M19.5001 50.5C21.4222 50.5685 23.2386 51.3966 24.5509 52.8026C25.8631 54.2086 26.5642 56.0778 26.5001 58H27.5001C27.5644 55.8125 26.7581 53.6889 25.2582 52.0953C23.7583 50.5017 21.6875 49.5683 19.5001 49.5V50.5ZM12.5001 58C12.4361 56.0778 13.1371 54.2086 14.4494 52.8026C15.7617 51.3966 17.5781 50.5685 19.5001 50.5V49.5C17.3128 49.5683 15.2419 50.5017 13.742 52.0953C12.2422 53.6889 11.4359 55.8125 11.5001 58H12.5001ZM19.5001 65.5C17.5781 65.4315 15.7617 64.6034 14.4494 63.1974C13.1371 61.7914 12.4361 59.9222 12.5001 58H11.5001C11.4359 60.1875 12.2422 62.3111 13.742 63.9047C15.2419 65.4983 17.3128 66.4317 19.5001 66.5V65.5ZM26.5001 58C26.5642 59.9222 25.8632 61.7914 24.5509 63.1974C23.2386 64.6034 21.4222 65.4315 19.5001 65.5V66.5C21.6875 66.4317 23.7584 65.4983 25.2583 63.9047C26.7581 62.3111 27.5644 60.1875 27.5001 58H26.5001Z" fill="black"/>
<path d="M4.5 92V72H3.5V92H4.5ZM34 91.5H4V92.5H34V91.5ZM33.5 72V92H34.5V72H33.5ZM4 72.5H34V71.5H4V72.5ZM4 92H3.5C3.5 92.1326 3.55266 92.2597 3.64642 92.3535C3.74019 92.4473 3.86739 92.5 4 92.5V92ZM34 92V92.5C34.1326 92.5 34.2598 92.4473 34.3536 92.3535C34.4473 92.2597 34.5 92.1326 34.5 92H34ZM34 72H34.5C34.5 71.8674 34.4473 71.7403 34.3536 71.6465C34.2598 71.5527 34.1326 71.5 34 71.5V72ZM4 72V71.5C3.86739 71.5 3.74019 71.5527 3.64642 71.6465C3.55266 71.7403 3.5 71.8674 3.5 72H4Z" fill="black"/>
<path d="M6 92.5H34V91.5H6V92.5ZM34 92.5C34.1326 92.5 34.2598 92.4473 34.3536 92.3535C34.4473 92.2597 34.5 92.1326 34.5 92C34.5 91.8674 34.4473 91.7403 34.3536 91.6465C34.2598 91.5527 34.1326 91.5 34 91.5V92.5ZM6 91.5C5.86739 91.5 5.74019 91.5527 5.64642 91.6465C5.55266 91.7403 5.5 91.8674 5.5 92C5.5 92.1326 5.55266 92.2597 5.64642 92.3535C5.74019 92.4473 5.86739 92.5 6 92.5V91.5Z" fill="black"/>
<path d="M14.5 74V90H15.5V74H14.5ZM14.5 90C14.5 90.1326 14.5527 90.2597 14.6464 90.3535C14.7402 90.4473 14.8674 90.5 15 90.5C15.1326 90.5 15.2598 90.4473 15.3536 90.3535C15.4473 90.2597 15.5 90.1326 15.5 90H14.5ZM15.5 74C15.5 73.8674 15.4473 73.7403 15.3536 73.6465C15.2598 73.5527 15.1326 73.5 15 73.5C14.8674 73.5 14.7402 73.5527 14.6464 73.6465C14.5527 73.7403 14.5 73.8674 14.5 74H15.5Z" fill="black"/>
<path d="M9.5 74V90H10.5V74H9.5ZM9.5 90C9.5 90.1326 9.55266 90.2597 9.64642 90.3535C9.74019 90.4473 9.86739 90.5 10 90.5C10.1326 90.5 10.2598 90.4473 10.3536 90.3535C10.4473 90.2597 10.5 90.1326 10.5 90H9.5ZM10.5 74C10.5 73.8674 10.4473 73.7403 10.3536 73.6465C10.2598 73.5527 10.1326 73.5 10 73.5C9.86739 73.5 9.74019 73.5527 9.64642 73.6465C9.55266 73.7403 9.5 73.8674 9.5 74H10.5Z" fill="black"/>
<path d="M18.5 74V90H19.5V74H18.5ZM18.5 90C18.5 90.1326 18.5527 90.2597 18.6464 90.3535C18.7402 90.4473 18.8674 90.5 19 90.5C19.1326 90.5 19.2598 90.4473 19.3536 90.3535C19.4473 90.2597 19.5 90.1326 19.5 90H18.5ZM19.5 74C19.5 73.8674 19.4473 73.7403 19.3536 73.6465C19.2598 73.5527 19.1326 73.5 19 73.5C18.8674 73.5 18.7402 73.5527 18.6464 73.6465C18.5527 73.7403 18.5 73.8674 18.5 74H19.5Z" fill="black"/>
<path d="M23.5 74V90H24.5V74H23.5ZM23.5 90C23.5 90.1326 23.5527 90.2597 23.6464 90.3535C23.7402 90.4473 23.8674 90.5 24 90.5C24.1326 90.5 24.2598 90.4473 24.3536 90.3535C24.4473 90.2597 24.5 90.1326 24.5 90H23.5ZM24.5 74C24.5 73.8674 24.4473 73.7403 24.3536 73.6465C24.2598 73.5527 24.1326 73.5 24 73.5C23.8674 73.5 23.7402 73.5527 23.6464 73.6465C23.5527 73.7403 23.5 73.8674 23.5 74H24.5Z" fill="black"/>
<path d="M27.5 74V90H28.5V74H27.5ZM27.5 90C27.5 90.1326 27.5527 90.2597 27.6464 90.3535C27.7402 90.4473 27.8674 90.5 28 90.5C28.1326 90.5 28.2598 90.4473 28.3536 90.3535C28.4473 90.2597 28.5 90.1326 28.5 90H27.5ZM28.5 74C28.5 73.8674 28.4473 73.7403 28.3536 73.6465C28.2598 73.5527 28.1326 73.5 28 73.5C27.8674 73.5 27.7402 73.5527 27.6464 73.6465C27.5527 73.7403 27.5 73.8674 27.5 74H28.5Z" fill="black"/>
<path d="M6.5 43V33H5.5V43H6.5ZM33 42.5H6V43.5H33V42.5ZM32.5 33V43H33.5V33H32.5ZM6 33.5H33V32.5H6V33.5ZM6 43H5.5C5.5 43.1326 5.55266 43.2597 5.64642 43.3535C5.74019 43.4473 5.86739 43.5 6 43.5V43ZM33 43V43.5C33.1326 43.5 33.2598 43.4473 33.3536 43.3535C33.4473 43.2597 33.5 43.1326 33.5 43H33ZM33 33H33.5C33.5 32.8674 33.4473 32.7403 33.3536 32.6465C33.2598 32.5527 33.1326 32.5 33 32.5V33ZM6 33V32.5C5.86739 32.5 5.74019 32.5527 5.64642 32.6465C5.55266 32.7403 5.5 32.8674 5.5 33H6Z" fill="black"/>
<path d="M31.416 32.7227L25.416 23.7227L24.584 24.2773L30.584 33.2773L31.416 32.7227ZM7.00003 33.5H31V32.5H7.00003V33.5ZM12.584 23.7227L6.58396 32.7227L7.41605 33.2773L13.416 24.2773L12.584 23.7227ZM25 23.5H13V24.5H25V23.5ZM31 33V33.5C31.0905 33.5 31.1793 33.4755 31.2569 33.429C31.3346 33.3824 31.3981 33.3158 31.4408 33.236C31.4835 33.1562 31.5038 33.0662 31.4994 32.9758C31.4951 32.8854 31.4662 32.798 31.416 32.7227L31 33ZM7.00003 33L6.58396 32.7227C6.53376 32.798 6.50495 32.8854 6.50058 32.9758C6.49622 33.0662 6.51647 33.1562 6.55918 33.236C6.60189 33.3158 6.66543 33.3825 6.74307 33.429C6.82072 33.4755 6.90953 33.5 7.00003 33.5V33ZM13 24V23.5C12.9177 23.5 12.8367 23.5204 12.7641 23.5592C12.6915 23.598 12.6296 23.6542 12.584 23.7227L13 24ZM25 24L25.416 23.7227C25.3704 23.6542 25.3085 23.598 25.2359 23.5592C25.1634 23.5204 25.0823 23.5 25 23.5V24Z" fill="black"/>
<path d="M24.5 13V24H25.5V13H24.5ZM13 13.5H25V12.5H13V13.5ZM13.5 24V13H12.5V24H13.5ZM24.5 24C24.5 24.1326 24.5527 24.2597 24.6464 24.3535C24.7402 24.4473 24.8674 24.5 25 24.5C25.1326 24.5 25.2598 24.4473 25.3536 24.3535C25.4473 24.2597 25.5 24.1326 25.5 24H24.5ZM25 13H25.5C25.5 12.8674 25.4473 12.7403 25.3536 12.6465C25.2598 12.5527 25.1326 12.5 25 12.5V13ZM13 13V12.5C12.8674 12.5 12.7402 12.5527 12.6464 12.6465C12.5527 12.7403 12.5 12.8674 12.5 13H13ZM12.5 24C12.5 24.1326 12.5527 24.2597 12.6464 24.3535C12.7402 24.4473 12.8674 24.5 13 24.5C13.1326 24.5 13.2598 24.4473 13.3536 24.3535C13.4473 24.2597 13.5 24.1326 13.5 24H12.5Z" fill="black"/>
<path d="M12.5 8.99953V13H13.5V8.99953H12.5ZM18.1852 0.71352L12.5902 8.71291L13.4097 9.28603L19.0046 1.28652L18.1852 0.71352ZM25.3903 8.68703L18.9852 0.687519L18.2046 1.31252L24.6096 9.31203L25.3903 8.68703ZM25.5 13V8.99953H24.5V13H25.5ZM12.5 13C12.5 13.1326 12.5527 13.2598 12.6464 13.3535C12.7402 13.4473 12.8674 13.5 13 13.5C13.1326 13.5 13.2598 13.4473 13.3536 13.3535C13.4473 13.2598 13.5 13.1326 13.5 13H12.5ZM13 8.99953L12.5902 8.71291C12.5314 8.79691 12.5 8.89701 12.5 8.99953H13ZM18.595 1.00002L18.9852 0.687519C18.9367 0.626896 18.8748 0.578404 18.8042 0.545918C18.7336 0.513431 18.6565 0.497868 18.5789 0.500385C18.5012 0.502903 18.4252 0.523455 18.3569 0.560444C18.2886 0.597433 18.2298 0.649878 18.1852 0.71352L18.595 1.00002ZM25 8.99953H25.5C25.5 8.88592 25.4613 8.7757 25.3903 8.68703L25 8.99953ZM24.5 13C24.5 13.1326 24.5527 13.2598 24.6464 13.3535C24.7402 13.4473 24.8674 13.5 25 13.5C25.1326 13.5 25.2598 13.4473 25.3536 13.3535C25.4473 13.2598 25.5 13.1326 25.5 13H24.5Z" fill="black"/>
<path d="M18.6799 59.718L20.6799 61.3842L21.32 60.6158L19.32 58.9497L18.6799 59.718ZM18.5 56V59.3339H19.5V56H18.5ZM20.6799 61.3842C20.7818 61.469 20.9133 61.5101 21.0453 61.498C21.1774 61.486 21.2993 61.422 21.3842 61.3201C21.469 61.2182 21.51 61.0868 21.4979 60.9547C21.4859 60.8226 21.4219 60.7007 21.32 60.6158L20.6799 61.3842ZM19 59.3339H18.5C18.5 59.4072 18.5161 59.4796 18.5472 59.546C18.5783 59.6124 18.6236 59.6711 18.6799 59.718L19 59.3339ZM19.5 56C19.5 55.8674 19.4473 55.7403 19.3536 55.6465C19.2598 55.5527 19.1326 55.5 19 55.5C18.8674 55.5 18.7402 55.5527 18.6464 55.6465C18.5527 55.7403 18.5 55.8674 18.5 56H19.5Z" fill="black"/>
<path d="M9.5 37V39H10.5V37H9.5ZM9.5 39C9.5 39.1326 9.55266 39.2597 9.64642 39.3535C9.74019 39.4473 9.86739 39.5 10 39.5C10.1326 39.5 10.2598 39.4473 10.3536 39.3535C10.4473 39.2597 10.5 39.1326 10.5 39H9.5ZM10.5 37C10.5 36.8674 10.4473 36.7403 10.3536 36.6465C10.2598 36.5527 10.1326 36.5 10 36.5C9.86739 36.5 9.74019 36.5527 9.64642 36.6465C9.55266 36.7403 9.5 36.8674 9.5 37H10.5Z" fill="black"/>
<path d="M14.5 37V39H15.5V37H14.5ZM14.5 39C14.5 39.1326 14.5527 39.2597 14.6464 39.3535C14.7402 39.4473 14.8674 39.5 15 39.5C15.1326 39.5 15.2598 39.4473 15.3536 39.3535C15.4473 39.2597 15.5 39.1326 15.5 39H14.5ZM15.5 37C15.5 36.8674 15.4473 36.7403 15.3536 36.6465C15.2598 36.5527 15.1326 36.5 15 36.5C14.8674 36.5 14.7402 36.5527 14.6464 36.6465C14.5527 36.7403 14.5 36.8674 14.5 37H15.5Z" fill="black"/>
<path d="M18.5 37V39H19.5V37H18.5ZM18.5 39C18.5 39.1326 18.5527 39.2597 18.6464 39.3535C18.7402 39.4473 18.8674 39.5 19 39.5C19.1326 39.5 19.2598 39.4473 19.3536 39.3535C19.4473 39.2597 19.5 39.1326 19.5 39H18.5ZM19.5 37C19.5 36.8674 19.4473 36.7403 19.3536 36.6465C19.2598 36.5527 19.1326 36.5 19 36.5C18.8674 36.5 18.7402 36.5527 18.6464 36.6465C18.5527 36.7403 18.5 36.8674 18.5 37H19.5Z" fill="black"/>
<path d="M18.5 18V19H19.5V18H18.5ZM18.5 19C18.5 19.1326 18.5527 19.2597 18.6464 19.3535C18.7402 19.4473 18.8674 19.5 19 19.5C19.1326 19.5 19.2598 19.4473 19.3536 19.3535C19.4473 19.2597 19.5 19.1326 19.5 19H18.5ZM19.5 18C19.5 17.8674 19.4473 17.7403 19.3536 17.6465C19.2598 17.5527 19.1326 17.5 19 17.5C18.8674 17.5 18.7402 17.5527 18.6464 17.6465C18.5527 17.7403 18.5 17.8674 18.5 18H19.5Z" fill="black"/>
<path d="M23.5 37V39H24.5V37H23.5ZM23.5 39C23.5 39.1326 23.5527 39.2597 23.6464 39.3535C23.7402 39.4473 23.8674 39.5 24 39.5C24.1326 39.5 24.2598 39.4473 24.3536 39.3535C24.4473 39.2597 24.5 39.1326 24.5 39H23.5ZM24.5 37C24.5 36.8674 24.4473 36.7403 24.3536 36.6465C24.2598 36.5527 24.1326 36.5 24 36.5C23.8674 36.5 23.7402 36.5527 23.6464 36.6465C23.5527 36.7403 23.5 36.8674 23.5 37H24.5Z" fill="black"/>
<path d="M27.5 37V39H28.5V37H27.5ZM27.5 39C27.5 39.1326 27.5527 39.2597 27.6464 39.3535C27.7402 39.4473 27.8674 39.5 28 39.5C28.1326 39.5 28.2598 39.4473 28.3536 39.3535C28.4473 39.2597 28.5 39.1326 28.5 39H27.5ZM28.5 37C28.5 36.8674 28.4473 36.7403 28.3536 36.6465C28.2598 36.5527 28.1326 36.5 28 36.5C27.8674 36.5 27.7402 36.5527 27.6464 36.6465C27.5527 36.7403 27.5 36.8674 27.5 37H28.5Z" fill="black"/>
<path d="M34 53.5H39V52.5H34V53.5ZM39 53.5C39.1326 53.5 39.2598 53.4473 39.3536 53.3535C39.4473 53.2597 39.5 53.1326 39.5 53C39.5 52.8674 39.4473 52.7403 39.3536 52.6465C39.2598 52.5527 39.1326 52.5 39 52.5V53.5ZM34 52.5C33.8674 52.5 33.7402 52.5527 33.6464 52.6465C33.5527 52.7403 33.5 52.8674 33.5 53C33.5 53.1326 33.5527 53.2597 33.6464 53.3535C33.7402 53.4473 33.8674 53.5 34 53.5V52.5Z" fill="black"/>
<path d="M1 53.5H4V52.5H1V53.5ZM4 53.5C4.13261 53.5 4.25981 53.4473 4.35358 53.3535C4.44734 53.2597 4.5 53.1326 4.5 53C4.5 52.8674 4.44734 52.7403 4.35358 52.6465C4.25981 52.5527 4.13261 52.5 4 52.5V53.5ZM1 52.5C0.867392 52.5 0.740192 52.5527 0.646423 52.6465C0.552655 52.7403 0.5 52.8674 0.5 53C0.5 53.1326 0.552655 53.2597 0.646423 53.3535C0.740192 53.4473 0.867392 53.5 1 53.5V52.5Z" fill="black"/>
<path d="M34 69.5H39V68.5H34V69.5ZM39 69.5C39.1326 69.5 39.2598 69.4473 39.3536 69.3535C39.4473 69.2597 39.5 69.1326 39.5 69C39.5 68.8674 39.4473 68.7403 39.3536 68.6465C39.2598 68.5527 39.1326 68.5 39 68.5V69.5ZM34 68.5C33.8674 68.5 33.7402 68.5527 33.6464 68.6465C33.5527 68.7403 33.5 68.8674 33.5 69C33.5 69.1326 33.5527 69.2597 33.6464 69.3535C33.7402 69.4473 33.8674 69.5 34 69.5V68.5Z" fill="black"/>
<path d="M1 69.5H4V68.5H1V69.5ZM4 69.5C4.13261 69.5 4.25981 69.4473 4.35358 69.3535C4.44734 69.2597 4.5 69.1326 4.5 69C4.5 68.8674 4.44734 68.7403 4.35358 68.6465C4.25981 68.5527 4.13261 68.5 4 68.5V69.5ZM1 68.5C0.867392 68.5 0.740192 68.5527 0.646423 68.6465C0.552655 68.7403 0.5 68.8674 0.5 69C0.5 69.1326 0.552655 69.2597 0.646423 69.3535C0.740192 69.4473 0.867392 69.5 1 69.5V68.5Z" fill="black"/>
</svg>
