<svg width="37" height="37" viewBox="0 0 37 37" fill="none" xmlns="http://www.w3.org/2000/svg">
<path d="M7.00001 17.1401C6.84119 17.2721 6.71135 17.4354 6.6186 17.6199C6.52585 17.8044 6.47221 18.0061 6.46101 18.2123C6.44981 18.4185 6.48131 18.6248 6.55354 18.8183C6.62576 19.0118 6.7371 19.1882 6.88069 19.3366C7.02427 19.485 7.19698 19.6022 7.38795 19.6808C7.57892 19.7594 7.78409 19.7977 7.99055 19.7933C8.19701 19.789 8.40031 19.742 8.58778 19.6554C8.77525 19.5688 8.94285 19.4445 9.08003 19.2901L7.00001 17.1401ZM28 19.2901C28.1372 19.4445 28.3048 19.5688 28.4923 19.6554C28.6797 19.742 28.883 19.789 29.0895 19.7933C29.2959 19.7977 29.5011 19.7594 29.6921 19.6808C29.8831 19.6022 30.0557 19.485 30.1993 19.3366C30.3429 19.1882 30.4543 19.0118 30.5265 18.8183C30.5987 18.6248 30.6302 18.4185 30.619 18.2123C30.6078 18.0061 30.5542 17.8044 30.4614 17.6199C30.3687 17.4354 30.2388 17.2721 30.08 17.1401L28 19.2901ZM10.5 20.5301C10.3412 20.6621 10.2114 20.8254 10.1186 21.0099C10.0258 21.1945 9.97221 21.3961 9.96101 21.6023C9.94981 21.8085 9.98131 22.0148 10.0535 22.2083C10.1258 22.4018 10.2371 22.5782 10.3807 22.7266C10.5243 22.875 10.697 22.9922 10.8879 23.0708C11.0789 23.1494 11.2841 23.1877 11.4905 23.1833C11.697 23.179 11.9003 23.132 12.0878 23.0454C12.2753 22.9588 12.4429 22.8344 12.58 22.6801L10.5 20.5301ZM24.5 22.6801C24.6372 22.8344 24.8048 22.9588 24.9923 23.0454C25.1797 23.132 25.383 23.179 25.5895 23.1833C25.7959 23.1877 26.0011 23.1494 26.1921 23.0708C26.3831 22.9922 26.5557 22.875 26.6993 22.7266C26.8429 22.5782 26.9543 22.4018 27.0265 22.2083C27.0987 22.0148 27.1302 21.8085 27.119 21.6023C27.1078 21.3961 27.0542 21.1945 26.9614 21.0099C26.8687 20.8254 26.7388 20.6621 26.58 20.5301L24.5 22.6801ZM14 23.9201C13.809 24.0354 13.6462 24.1917 13.5233 24.3779C13.4004 24.564 13.3206 24.7752 13.2896 24.9961C13.2587 25.217 13.2773 25.442 13.3443 25.6548C13.4113 25.8675 13.5249 26.0626 13.6768 26.226C13.8287 26.3893 14.0151 26.5166 14.2225 26.5988C14.4298 26.681 14.6529 26.7159 14.8755 26.7009C15.098 26.686 15.3145 26.6216 15.509 26.5125C15.7035 26.4034 15.8713 26.2522 16 26.0701L14 23.9201ZM21 26.0701C21.1372 26.2244 21.3048 26.3488 21.4923 26.4354C21.6797 26.522 21.883 26.5689 22.0895 26.5733C22.2959 26.5777 22.5011 26.5394 22.6921 26.4608C22.8831 26.3822 23.0557 26.2651 23.1993 26.1166C23.3429 25.9682 23.4543 25.7917 23.5265 25.5983C23.5987 25.4048 23.6302 25.1985 23.619 24.9923C23.6078 24.7861 23.5542 24.5845 23.4614 24.4C23.3687 24.2155 23.2388 24.0521 23.08 23.9201L21 26.0701ZM9.00001 19.2901C11.5474 16.8548 14.9359 15.4958 18.46 15.4958C21.9842 15.4958 25.3726 16.8548 27.92 19.2901L30 17.1401C26.8972 14.1602 22.762 12.4961 18.46 12.4961C14.158 12.4961 10.0228 14.1602 6.91999 17.1401L9.00001 19.2901ZM12.5 22.6801C14.1067 21.1492 16.2408 20.2953 18.46 20.2953C20.6792 20.2953 22.8133 21.1492 24.42 22.6801L26.5 20.5301C24.3379 18.4546 21.457 17.2957 18.46 17.2957C15.463 17.2957 12.5821 18.4546 10.42 20.5301L12.5 22.6801ZM16 26.0701C16.6659 25.4436 17.5458 25.0947 18.46 25.0947C19.3743 25.0947 20.2541 25.4436 20.92 26.0701L23 23.9201C21.7798 22.7468 20.1528 22.0914 18.46 22.0914C16.7673 22.0914 15.1402 22.7468 13.92 23.9201L16 26.0701Z" fill="#5C5856"/>
<path d="M36.5 18.83C36.5 18.4322 36.342 18.0507 36.0607 17.7693C35.7794 17.488 35.3979 17.33 35 17.33C34.6022 17.33 34.2207 17.488 33.9394 17.7693C33.6581 18.0507 33.5 18.4322 33.5 18.83H36.5ZM32.83 12.33C33.0223 12.6788 33.3452 12.9369 33.7278 13.0475C34.1104 13.1582 34.5213 13.1123 34.87 12.92C35.2188 12.7278 35.4769 12.4048 35.5876 12.0222C35.6982 11.6396 35.6523 11.2288 35.4601 10.88L32.83 12.33ZM33.5 18.83V21.34H36.5V18.83H33.5ZM33.5 21.34C33.5657 23.7758 33.4889 26.2132 33.2701 28.64C33.2238 29.8581 32.7734 31.0261 31.99 31.96L34.1501 34.04C35.3804 32.6494 36.1184 30.8922 36.25 29.04C36.4796 26.4836 36.5631 23.916 36.5 21.35L33.5 21.34ZM32 31.96C31.1346 32.7488 30.0198 33.2089 28.85 33.26C26.5237 33.4819 24.186 33.562 21.85 33.5V36.5C24.3365 36.5676 26.8249 36.4774 29.3 36.23C31.138 36.0909 32.8704 35.3167 34.2 34.04L32 31.96ZM21.81 33.5H15.2101V36.5H21.81V33.5ZM15.2101 33.5C12.874 33.562 10.5364 33.4819 8.21005 33.26C7.04022 33.2089 5.92541 32.7488 5.06003 31.96L2.90005 34.04C4.22967 35.3167 5.96199 36.0909 7.80002 36.23C10.2751 36.4774 12.7635 36.5676 15.25 36.5V33.5H15.2101ZM5.00003 31.96C4.21662 31.0261 3.76626 29.8581 3.72 28.64C3.50117 26.2132 3.42439 23.7758 3.49002 21.34H0.49002C0.426966 23.906 0.510435 26.4735 0.74002 29.03C0.87166 30.8822 1.60972 32.6394 2.84006 34.03L5.00003 31.95V31.96ZM3.49002 21.34V18.83H0.49002V21.34H3.49002ZM3.49002 18.83C3.49002 16.92 3.49006 15.58 3.59006 14.53C3.62656 13.7653 3.82056 13.0163 4.16 12.33L1.53006 10.88C0.989358 11.9266 0.672575 13.0743 0.600006 14.25C0.490006 15.48 0.49002 16.97 0.49002 18.83H3.49002ZM4.16 12.33C4.54265 11.683 5.0613 11.1269 5.68002 10.7C6.50002 10.07 7.60003 9.39002 9.19003 8.40002L7.61002 5.85004C6.07002 6.85004 4.82002 7.58001 3.86002 8.32001C2.90753 8.995 2.11267 9.86837 1.53006 10.88L4.16 12.33ZM9.16 8.40002L12.4601 6.40002L10.92 3.77002L7.62003 5.82001L9.20004 8.37L9.16 8.40002ZM12.4601 6.40002C14.1401 5.40002 15.3001 4.64004 16.2801 4.17004C16.9467 3.79196 17.6943 3.57935 18.4601 3.55005V0.550049C17.2378 0.581039 16.0395 0.895994 14.9601 1.47003C13.8201 2.02003 12.51 2.84004 10.88 3.85004L12.4601 6.40002ZM18.4601 3.55005C19.2256 3.58088 19.9728 3.7934 20.64 4.17004C21.64 4.64004 22.7801 5.36002 24.4601 6.40002L26.04 3.85004C24.41 2.85004 23.1001 2.02003 21.9601 1.47003C20.8806 0.895994 19.6823 0.581039 18.4601 0.550049V3.55005ZM24.4601 6.40002L27.76 8.40002L29.3401 5.85004L26.04 3.80005L24.4601 6.35004V6.40002ZM27.76 8.40002C29.35 9.40002 30.4501 10.07 31.2701 10.7C31.8888 11.1269 32.4074 11.683 32.79 12.33L35.42 10.88C34.8374 9.86837 34.0425 8.995 33.0901 8.32001C32.0901 7.58001 30.8801 6.81004 29.3401 5.85004L27.76 8.40002Z" fill="#5C5856"/>
</svg>
