<svg width="66" height="89" viewBox="0 0 66 89" fill="none" xmlns="http://www.w3.org/2000/svg">
<path d="M18.5156 60.0312V52.7656H16.5156V60.0312H18.5156ZM46.5781 59.0312H17.5156V61.0312H46.5781V59.0312ZM45.5781 52.7656V60.0312H47.5781V52.7656H45.5781ZM17.5156 53.7656H46.5781V51.7656H17.5156V53.7656ZM17.5156 60.0312H16.5156C16.5156 60.2965 16.621 60.5509 16.8085 60.7384C16.9961 60.9259 17.2504 61.0312 17.5156 61.0312V60.0312ZM46.5781 60.0312V61.0312C46.8433 61.0312 47.0977 60.9259 47.2852 60.7384C47.4728 60.5509 47.5781 60.2965 47.5781 60.0312H46.5781ZM46.5781 52.7656H47.5781C47.5781 52.5004 47.4728 52.246 47.2852 52.0585C47.0977 51.8709 46.8433 51.7656 46.5781 51.7656V52.7656ZM17.5156 52.7656V51.7656C17.2504 51.7656 16.9961 51.8709 16.8085 52.0585C16.621 52.246 16.5156 52.5004 16.5156 52.7656H17.5156Z" fill="#444444"/>
<path d="M18.1523 87.6406V87.2788H16.1523V87.6406H18.1523ZM1.53124 88.6406H17.1523V86.6406H1.53124V88.6406ZM19.1383 59.4758L0.699636 87.0853L2.36283 88.196L20.8015 60.5867L19.1383 59.4758ZM44.2008 59.0312H19.9699V61.0312H44.2008V59.0312ZM64.828 87.0576L45.0132 59.4482L43.3884 60.6144L63.2032 88.2236L64.828 87.0576ZM46.9065 88.6406H64.0156V86.6406H46.9065V88.6406ZM45.9065 87.2788V87.6406H47.9065V87.2788H45.9065ZM41.8812 77.9285C44.4113 80.3927 45.8592 83.7607 45.9066 87.2922L47.9064 87.2654C47.852 83.2036 46.1866 79.3298 43.2766 76.4956L41.8812 77.9285ZM32.4144 74.1515C35.9459 74.1056 39.3511 75.4642 41.8812 77.9285L43.2766 76.4956C40.3666 73.6614 36.4502 72.0989 32.3884 72.1516L32.4144 74.1515ZM31.6574 74.1515H32.4014V72.1515H31.6574V74.1515ZM22.1776 77.9285C24.7077 75.4642 28.1129 74.1056 31.6444 74.1515L31.6704 72.1516C27.6087 72.0989 23.6922 73.6614 20.7822 76.4956L22.1776 77.9285ZM18.1522 87.2922C18.1996 83.7607 19.6475 80.3927 22.1776 77.9285L20.7822 76.4956C17.8722 79.3298 16.2069 83.2036 16.1524 87.2654L18.1522 87.2922ZM17.1523 87.6406L17.1523 88.6406C17.4176 88.6406 17.6719 88.5353 17.8594 88.3478C18.047 88.1602 18.1523 87.9058 18.1523 87.6406H17.1523ZM1.53122 87.6406L0.699636 87.0853C0.599082 87.2359 0.541294 87.4109 0.532445 87.5918C0.523596 87.7726 0.564016 87.9525 0.649389 88.1122C0.734762 88.2719 0.861877 88.4053 1.01719 88.4984C1.1725 88.5915 1.35018 88.6406 1.53124 88.6406L1.53122 87.6406ZM19.9699 60.0312L19.9699 59.0312C19.8054 59.0313 19.6435 59.0719 19.4984 59.1494C19.3534 59.227 19.2297 59.339 19.1383 59.4758L19.9699 60.0312ZM44.2008 60.0312L45.0132 59.4482C44.9206 59.3192 44.7987 59.2141 44.6574 59.1416C44.5161 59.0691 44.3596 59.0313 44.2008 59.0312V60.0312ZM64.0156 87.6406V88.6406C64.1995 88.6406 64.3799 88.5899 64.5369 88.494C64.6938 88.3982 64.8213 88.2609 64.9053 88.0973C64.9892 87.9337 65.0265 87.7499 65.0128 87.5665C64.9992 87.3831 64.9353 87.207 64.828 87.0576L64.0156 87.6406ZM46.9065 87.6406H45.9065C45.9065 87.9058 46.0119 88.1602 46.1994 88.3478C46.3869 88.5353 46.6413 88.6406 46.9065 88.6406L46.9065 87.6406ZM46.9065 87.2788H47.9065L47.9064 87.2654L46.9065 87.2788ZM32.4014 73.1515V74.1515H32.4144L32.4014 73.1515ZM31.6574 73.1515L31.6444 74.1515H31.6574L31.6574 73.1515ZM17.1523 87.2788L16.1524 87.2654L16.1523 87.2788H17.1523Z" fill="#444444"/>
<path d="M5.78882 82.8077H17.4836V80.8077H5.78882V82.8077ZM17.4836 82.8077C17.7488 82.8077 18.0031 82.7024 18.1907 82.5149C18.3782 82.3274 18.4836 82.073 18.4836 81.8077C18.4836 81.5425 18.3782 81.2881 18.1907 81.1006C18.0031 80.913 17.7488 80.8077 17.4836 80.8077V82.8077ZM5.78882 80.8077C5.5236 80.8077 5.26925 80.913 5.08171 81.1006C4.89417 81.2881 4.78882 81.5425 4.78882 81.8077C4.78882 82.073 4.89417 82.3274 5.08171 82.5149C5.26925 82.7024 5.5236 82.8077 5.78882 82.8077V80.8077Z" fill="#444444"/>
<path d="M46.7189 82.8077L59.3276 82.828L59.3309 80.828L46.7221 80.8077L46.7189 82.8077ZM59.3276 82.828C59.5928 82.8284 59.8474 82.7235 60.0352 82.5363C60.223 82.349 60.3288 82.0949 60.3292 81.8297C60.3297 81.5645 60.2247 81.3099 60.0375 81.1221C59.8503 80.9342 59.5961 80.8284 59.3309 80.828L59.3276 82.828ZM46.7221 80.8077C46.4569 80.8073 46.2023 80.9123 46.0145 81.0995C45.8267 81.2867 45.7209 81.5409 45.7205 81.8062C45.72 82.0714 45.825 82.3258 46.0122 82.5137C46.1995 82.7015 46.4536 82.8073 46.7189 82.8077L46.7221 80.8077Z" fill="#444444"/>
<path d="M19.5572 80.7743L28.1466 61.0525L26.3129 60.2539L17.7235 79.9757L19.5572 80.7743ZM28.1466 61.0525C28.199 60.9321 28.2272 60.8026 28.2296 60.6713C28.232 60.54 28.2085 60.4096 28.1604 60.2874C28.1124 60.1652 28.0407 60.0535 27.9495 59.959C27.8584 59.8645 27.7495 59.7889 27.6291 59.7365C27.5087 59.6841 27.3791 59.6559 27.2478 59.6535C27.1165 59.6511 26.986 59.6745 26.8638 59.7226C26.7416 59.7706 26.6301 59.8423 26.5355 59.9335C26.441 60.0247 26.3654 60.1335 26.3129 60.2539L28.1466 61.0525ZM17.7235 79.9757C17.6711 80.0961 17.6429 80.2257 17.6405 80.357C17.6382 80.4883 17.6617 80.6188 17.7097 80.741C17.7578 80.8632 17.8295 80.9747 17.9206 81.0693C18.0118 81.1638 18.1207 81.2395 18.2411 81.2919C18.3615 81.3444 18.491 81.3725 18.6223 81.3749C18.7536 81.3773 18.8841 81.3538 19.0063 81.3057C19.1285 81.2577 19.2401 81.1861 19.3346 81.0949C19.4291 81.0037 19.5047 80.8947 19.5572 80.7743L17.7235 79.9757Z" fill="#444444"/>
<path d="M48.6427 81.3733L37.6092 59.7754L35.8281 60.6853L46.8617 82.2831L48.6427 81.3733ZM37.6092 59.7754C37.5494 59.6584 37.4672 59.5544 37.3673 59.4692C37.2673 59.384 37.1516 59.3195 37.0266 59.279C36.9017 59.2386 36.77 59.2231 36.6391 59.2335C36.5082 59.2439 36.3806 59.2801 36.2637 59.3398C36.1467 59.3996 36.0427 59.4817 35.9575 59.5816C35.8724 59.6816 35.8077 59.7974 35.7672 59.9223C35.7268 60.0473 35.7114 60.179 35.7218 60.3099C35.7322 60.4408 35.7684 60.5683 35.8281 60.6853L37.6092 59.7754ZM46.8617 82.2831C46.9209 82.401 47.0028 82.506 47.1027 82.5921C47.2027 82.6783 47.3187 82.7438 47.444 82.7849C47.5694 82.826 47.7017 82.8419 47.8332 82.8316C47.9647 82.8214 48.0929 82.7852 48.2104 82.7252C48.3279 82.6652 48.4324 82.5825 48.5178 82.4819C48.6032 82.3813 48.6678 82.2648 48.708 82.1391C48.7482 82.0135 48.7631 81.8811 48.7519 81.7496C48.7407 81.6182 48.7036 81.4903 48.6427 81.3733L46.8617 82.2831Z" fill="#444444"/>
<path d="M37.2906 25.3322L42.2254 52.9417L44.1942 52.5897L39.2594 24.9803L37.2906 25.3322ZM25.8188 26.1562H38.2751V24.1562H25.8188V26.1562ZM21.8684 52.9415L26.8032 25.3322L24.8344 24.9803L19.8996 52.5897L21.8684 52.9415ZM43.2098 51.7655H20.8841V53.7655H43.2099L43.2098 51.7655ZM38.275 25.1561L39.2594 24.9803C39.2181 24.7493 39.0969 24.5401 38.9169 24.3894C38.737 24.2387 38.5098 24.1562 38.2751 24.1562L38.275 25.1561ZM25.8188 25.1561V24.1562C25.5841 24.1563 25.3569 24.2387 25.1769 24.3894C24.997 24.5401 24.8757 24.7493 24.8344 24.9803L25.8188 25.1561ZM20.884 52.7655L19.8996 52.5897C19.8739 52.7337 19.8801 52.8814 19.9177 53.0227C19.9553 53.164 20.0234 53.2954 20.1173 53.4075C20.2111 53.5196 20.3284 53.6098 20.4609 53.6716C20.5934 53.7335 20.7378 53.7655 20.8841 53.7655L20.884 52.7655ZM43.2098 52.7655L43.2099 53.7655C43.3561 53.7655 43.5005 53.7335 43.633 53.6716C43.7655 53.6098 43.8827 53.5196 43.9766 53.4075C44.0705 53.2954 44.1386 53.164 44.1762 53.0227C44.2138 52.8814 44.22 52.7337 44.1942 52.5897L43.2098 52.7655Z" fill="#444444"/>
<path d="M24.7318 34.8838H39.2689V32.8838H24.7318V34.8838ZM39.2689 34.8838C39.5341 34.8838 39.7884 34.7784 39.976 34.5908C40.1635 34.4033 40.2689 34.149 40.2689 33.8838C40.2689 33.6186 40.1635 33.3642 39.976 33.1766C39.7884 32.9891 39.5341 32.8838 39.2689 32.8838V34.8838ZM24.7318 32.8838C24.4666 32.8838 24.2122 32.9891 24.0247 33.1766C23.8372 33.3642 23.7318 33.6186 23.7318 33.8838C23.7318 34.149 23.8372 34.4033 24.0247 34.5908C24.2122 34.7784 24.4666 34.8838 24.7318 34.8838V32.8838Z" fill="#444444"/>
<path d="M33.6947 6.34509L35.2016 25.2358L37.1953 25.0768L35.6884 6.18616L33.6947 6.34509ZM29.4022 7.26562H34.6915V5.26562H29.4022V7.26562ZM28.8921 25.2358L30.399 6.34509L28.4053 6.18616L26.8984 25.0768L28.8921 25.2358ZM36.1984 24.1562H27.8953V26.1562H36.1984V24.1562ZM34.6915 6.26562L35.6884 6.18616C35.6684 5.93549 35.5547 5.70161 35.37 5.53101C35.1852 5.36041 34.943 5.26563 34.6915 5.26562V6.26562ZM29.4022 6.26562V5.26562C29.1507 5.26563 28.9085 5.36041 28.7237 5.53101C28.539 5.70161 28.4253 5.93549 28.4053 6.18616L29.4022 6.26562ZM27.8953 25.1562L26.8984 25.0768C26.8875 25.2144 26.9051 25.3527 26.9502 25.4832C26.9953 25.6136 27.0669 25.7333 27.1606 25.8347C27.2542 25.9361 27.3678 26.017 27.4943 26.0724C27.6207 26.1277 27.7573 26.1563 27.8953 26.1562V25.1562ZM36.1984 25.1562V26.1562C36.3364 26.1563 36.473 26.1277 36.5994 26.0724C36.7259 26.017 36.8395 25.9361 36.9331 25.8347C37.0268 25.7333 37.0984 25.6136 37.1435 25.4832C37.1886 25.3527 37.2062 25.2144 37.1953 25.0768L36.1984 25.1562Z" fill="#444444"/>
<path d="M33.0469 6.26562V1.90625H31.0469V6.26562H33.0469ZM33.0469 1.90625C33.0469 1.64103 32.9415 1.38663 32.754 1.1991C32.5664 1.01156 32.3121 0.90625 32.0469 0.90625C31.7817 0.90625 31.5273 1.01156 31.3398 1.1991C31.1522 1.38663 31.0469 1.64103 31.0469 1.90625H33.0469ZM31.0469 6.26562C31.0469 6.53084 31.1522 6.78524 31.3398 6.97278C31.5273 7.16031 31.7817 7.26562 32.0469 7.26562C32.3121 7.26562 32.5664 7.16031 32.754 6.97278C32.9415 6.78524 33.0469 6.53084 33.0469 6.26562H31.0469Z" fill="#444444"/>
<path d="M26.2344 47.9531H30.5938V45.9531H26.2344V47.9531ZM30.5938 47.9531C30.859 47.9531 31.1133 47.8478 31.3009 47.6603C31.4884 47.4727 31.5938 47.2183 31.5938 46.9531C31.5938 46.6879 31.4884 46.4335 31.3009 46.246C31.1133 46.0584 30.859 45.9531 30.5938 45.9531V47.9531ZM26.2344 45.9531C25.9692 45.9531 25.7148 46.0584 25.5273 46.246C25.3397 46.4335 25.2344 46.6879 25.2344 46.9531C25.2344 47.2183 25.3397 47.4727 25.5273 47.6603C25.7148 47.8478 25.9692 47.9531 26.2344 47.9531V45.9531Z" fill="#444444"/>
<path d="M27.6875 42.1406H36.4062V40.1406H27.6875V42.1406ZM36.4062 42.1406C36.6715 42.1406 36.9258 42.0353 37.1134 41.8478C37.3009 41.6602 37.4062 41.4058 37.4062 41.1406C37.4062 40.8754 37.3009 40.621 37.1134 40.4335C36.9258 40.2459 36.6715 40.1406 36.4062 40.1406V42.1406ZM27.6875 40.1406C27.4223 40.1406 27.1679 40.2459 26.9804 40.4335C26.7929 40.621 26.6875 40.8754 26.6875 41.1406C26.6875 41.4058 26.7929 41.6602 26.9804 41.8478C27.1679 42.0353 27.4223 42.1406 27.6875 42.1406V40.1406Z" fill="#444444"/>
<path d="M45.3267 76.3108L57.8323 81.3038L58.5739 79.4464L46.0683 74.4534L45.3267 76.3108ZM48.5787 66.8728L44.7919 74.958L46.6031 75.8063L50.3899 67.7211L48.5787 66.8728ZM39.4666 65.9166L49.2505 68.2693L49.7181 66.3247L39.9342 63.9721L39.4666 65.9166ZM57.8323 81.3038C57.9544 81.3532 58.085 81.3779 58.2166 81.3766C58.3483 81.3753 58.4784 81.348 58.5995 81.2963C58.7206 81.2446 58.8302 81.1695 58.9222 81.0753C59.0142 80.9811 59.0867 80.8697 59.1355 80.7474C59.1843 80.6252 59.2085 80.4945 59.2067 80.3628C59.2049 80.2312 59.1771 80.1011 59.1249 79.9802C59.0727 79.8594 58.9972 79.7499 58.9026 79.6583C58.808 79.5667 58.6964 79.4947 58.5739 79.4464L57.8323 81.3038ZM45.6975 75.3821L44.7919 74.958C44.7341 75.0814 44.7022 75.2152 44.698 75.3513C44.6938 75.4875 44.7174 75.6231 44.7675 75.7498C44.8176 75.8764 44.893 75.9915 44.9892 76.088C45.0853 76.1845 45.2002 76.2603 45.3267 76.3108L45.6975 75.3821ZM49.4843 67.297L50.3899 67.7211C50.4528 67.5867 50.4851 67.4401 50.4843 67.2918C50.4835 67.1434 50.4498 66.9971 50.3855 66.8634C50.3211 66.7297 50.2279 66.6121 50.1125 66.5189C49.9971 66.4258 49.8623 66.3594 49.7181 66.3247L49.4843 67.297ZM39.9342 63.9721C39.8061 63.9402 39.673 63.934 39.5425 63.9539C39.412 63.9737 39.2868 64.0192 39.1739 64.0877C39.0611 64.1561 38.9629 64.2462 38.8851 64.3528C38.8073 64.4594 38.7513 64.5804 38.7205 64.7088C38.6896 64.8371 38.6845 64.9703 38.7053 65.1006C38.7262 65.2309 38.7726 65.3557 38.842 65.468C38.9114 65.5803 39.0023 65.6778 39.1095 65.7548C39.2167 65.8318 39.3381 65.8868 39.4666 65.9166L39.9342 63.9721Z" fill="#444444"/>
<path d="M19.3877 75.3249L7.17269 79.5447L7.82575 81.4351L20.0408 77.2153L19.3877 75.3249ZM13.9741 68.7964L18.861 76.7915L20.5675 75.7485L15.6806 67.7535L13.9741 68.7964ZM24.7344 63.9936L14.5174 67.3241L15.1373 69.2258L25.3542 65.8951L24.7344 63.9936ZM7.17269 79.5447C6.92201 79.6313 6.71605 79.8139 6.60003 80.0524C6.48401 80.2909 6.46748 80.5656 6.55408 80.8163C6.64068 81.067 6.82331 81.2731 7.0618 81.3891C7.3003 81.5051 7.57507 81.5217 7.82575 81.4351L7.17269 79.5447ZM19.7142 76.2701L20.0408 77.2153C20.1821 77.1664 20.3107 77.0865 20.417 76.9814C20.5234 76.8763 20.6049 76.7487 20.6554 76.608C20.7059 76.4672 20.7243 76.317 20.7091 76.1683C20.6938 76.0195 20.6454 75.876 20.5675 75.7485L19.7142 76.2701ZM14.8274 68.2748L14.5174 67.3241C14.3739 67.3709 14.2428 67.4497 14.134 67.5544C14.0252 67.6591 13.9415 67.7871 13.8892 67.9288C13.8369 68.0704 13.8174 68.2221 13.8321 68.3724C13.8468 68.5226 13.8954 68.6676 13.9741 68.7964L14.8274 68.2748ZM25.3542 65.8951C25.6064 65.8129 25.8156 65.6339 25.9358 65.3975C26.0559 65.1611 26.0773 64.8866 25.9951 64.6344C25.9129 64.3823 25.7339 64.1731 25.4974 64.0529C25.261 63.9327 24.9865 63.9114 24.7344 63.9936L25.3542 65.8951Z" fill="#444444"/>
</svg>
