<svg width="37" height="35" viewBox="0 0 37 35" fill="none" xmlns="http://www.w3.org/2000/svg">
<path d="M34.75 34.25C35.1478 34.25 35.5294 34.092 35.8107 33.8107C36.092 33.5294 36.25 33.1478 36.25 32.75C36.25 32.3522 36.092 31.9706 35.8107 31.6893C35.5294 31.408 35.1478 31.25 34.75 31.25V34.25ZM2.25 31.25C1.85218 31.25 1.47064 31.408 1.18933 31.6893C0.908026 31.9706 0.75 32.3522 0.75 32.75C0.75 33.1478 0.908026 33.5294 1.18933 33.8107C1.47064 34.092 1.85218 34.25 2.25 34.25V31.25ZM34.75 31.25H2.25V34.25H34.75V31.25Z" fill="#5C5856"/>
<path d="M1.30999 13.7001C0.999686 13.9494 0.80112 14.3118 0.757987 14.7075C0.714854 15.1032 0.830705 15.4998 1.08001 15.8101C1.32931 16.1204 1.69163 16.319 2.08733 16.3621C2.48303 16.4053 2.87969 16.2895 3.18999 16.0402L1.30999 13.7001ZM9.78997 10.7601C10.1003 10.5108 10.2988 10.1484 10.342 9.75275C10.3851 9.35704 10.2693 8.96045 10.02 8.65015C9.77071 8.33984 9.40833 8.14128 9.01263 8.09814C8.61692 8.05501 8.22027 8.17086 7.90996 8.42017L9.78997 10.7601ZM33.79 16.0402C34.1003 16.2895 34.4969 16.4053 34.8926 16.3621C35.2883 16.319 35.6507 16.1204 35.9 15.8101C36.1493 15.4998 36.2651 15.1032 36.222 14.7075C36.1788 14.3118 35.9803 13.9494 35.67 13.7001L33.79 16.0402ZM13.23 4.15015C12.9183 4.39812 12.718 4.75975 12.673 5.15546C12.628 5.55116 12.742 5.9485 12.99 6.26013C13.238 6.57176 13.5996 6.77213 13.9953 6.81714C14.391 6.86215 14.7883 6.7481 15.1 6.50012L13.23 4.15015ZM3.16997 16.0402L9.77001 10.7601L7.89001 8.42017L1.28997 13.7001L3.16997 16.0402ZM35.67 13.7001L22.46 3.14014L20.59 5.48016L33.79 16.0402L35.67 13.7001ZM22.46 3.14014C21.3264 2.22787 19.9151 1.73047 18.46 1.73047C17.0049 1.73047 15.5936 2.22787 14.46 3.14014L16.33 5.48016C16.9283 4.99973 17.6727 4.73785 18.44 4.73785C19.2073 4.73785 19.9517 4.99973 20.55 5.48016L22.42 3.14014H22.46ZM14.46 3.14014L13.19 4.14014L15.06 6.49011L16.33 5.49011L14.46 3.15015V3.14014Z" fill="#5C5856"/>
<path d="M22.69 5.94012C22.69 6.33795 22.8481 6.71949 23.1294 7.00079C23.4107 7.2821 23.7922 7.44012 24.19 7.44012C24.5878 7.44012 24.9694 7.2821 25.2507 7.00079C25.532 6.71949 25.69 6.33795 25.69 5.94012H22.69ZM28.38 10.8101C28.38 11.2079 28.5381 11.5895 28.8194 11.8708C29.1007 12.1521 29.4822 12.3101 29.88 12.3101C30.2779 12.3101 30.6594 12.1521 30.9407 11.8708C31.222 11.5895 31.38 11.2079 31.38 10.8101H28.38ZM25.69 5.94012V2.69012H22.69V5.94012H25.69ZM25.69 2.69012C25.6874 2.87139 25.6135 3.04432 25.4844 3.17157C25.3553 3.29882 25.1813 3.37014 25 3.37012V0.370117C24.6958 0.370114 24.3946 0.430223 24.1137 0.546936C23.8328 0.663649 23.5777 0.834668 23.3631 1.05023C23.1484 1.2658 22.9785 1.52168 22.863 1.8031C22.7475 2.08452 22.6887 2.38593 22.69 2.69012H25.69ZM25 3.37012H29.06V0.370117H25V3.37012ZM29.06 3.37012C28.8797 3.37012 28.7067 3.29848 28.5792 3.17096C28.4517 3.04343 28.38 2.87047 28.38 2.69012H31.38C31.38 2.07482 31.1356 1.48477 30.7005 1.04968C30.2654 0.614598 29.6753 0.370117 29.06 0.370117V3.37012ZM28.38 2.69012V10.7701H31.38V2.65015L28.38 2.69012Z" fill="#5C5856"/>
<path d="M4 32.77C4 33.1678 4.15803 33.5493 4.43933 33.8306C4.72064 34.1119 5.10218 34.27 5.5 34.27C5.89782 34.27 6.27936 34.1119 6.56067 33.8306C6.84197 33.5493 7 33.1678 7 32.77H4ZM7 12.46C7 12.0621 6.84197 11.6806 6.56067 11.3993C6.27936 11.118 5.89782 10.96 5.5 10.96C5.10218 10.96 4.72064 11.118 4.43933 11.3993C4.15803 11.6806 4 12.0621 4 12.46H7ZM7 32.77V12.4399H4V32.77H7Z" fill="#5C5856"/>
<path d="M33 12.4399C33 12.0421 32.842 11.6606 32.5607 11.3793C32.2794 11.098 31.8978 10.9399 31.5 10.9399C31.1022 10.9399 30.7206 11.098 30.4393 11.3793C30.158 11.6606 30 12.0421 30 12.4399H33ZM30 18.9399C30 19.3378 30.158 19.7193 30.4393 20.0006C30.7206 20.2819 31.1022 20.4399 31.5 20.4399C31.8978 20.4399 32.2794 20.2819 32.5607 20.0006C32.842 19.7193 33 19.3378 33 18.9399H30ZM30 32.77C30 33.1678 30.158 33.5493 30.4393 33.8306C30.7206 34.1119 31.1022 34.27 31.5 34.27C31.8978 34.27 32.2794 34.1119 32.5607 33.8306C32.842 33.5493 33 33.1678 33 32.77H30ZM33 25.46C33 25.0621 32.842 24.6806 32.5607 24.3993C32.2794 24.118 31.8978 23.96 31.5 23.96C31.1022 23.96 30.7206 24.118 30.4393 24.3993C30.158 24.6806 30 25.0621 30 25.46H33ZM30 12.46V18.96H33V12.46H30ZM33 32.77V25.46H30V32.77H33Z" fill="#5C5856"/>
<path d="M21.87 32.77C21.87 33.1678 22.028 33.5493 22.3093 33.8306C22.5906 34.1119 22.9722 34.27 23.37 34.27C23.7678 34.27 24.1494 34.1119 24.4307 33.8306C24.712 33.5493 24.87 33.1678 24.87 32.77H21.87ZM13.28 19.42C13.1327 19.5573 13.0144 19.7229 12.9324 19.9069C12.8505 20.0909 12.8063 20.2895 12.8028 20.4909C12.7992 20.6923 12.8363 20.8924 12.9117 21.0792C12.9872 21.2659 13.0995 21.4356 13.2419 21.5781C13.3844 21.7205 13.554 21.8328 13.7408 21.9082C13.9276 21.9836 14.1276 22.0207 14.329 22.0172C14.5304 22.0136 14.7291 21.9695 14.9131 21.8875C15.0971 21.8055 15.2627 21.6874 15.4 21.54L13.28 19.42ZM12.12 32.77C12.12 33.1678 12.278 33.5493 12.5593 33.8306C12.8406 34.1119 13.2222 34.27 13.62 34.27C14.0178 34.27 14.3994 34.1119 14.6807 33.8306C14.962 33.5493 15.12 33.1678 15.12 32.77H12.12ZM15.12 24.64C15.12 24.2421 14.962 23.8606 14.6807 23.5793C14.3994 23.298 14.0178 23.14 13.62 23.14C13.2222 23.14 12.8406 23.298 12.5593 23.5793C12.278 23.8606 12.12 24.2421 12.12 24.64H15.12ZM24.87 32.77V24.64H21.87V32.77H24.87ZM24.87 24.64C24.8974 23.6821 24.864 22.7235 24.77 21.77C24.7099 20.8966 24.3577 20.0689 23.77 19.42L21.65 21.54C21.65 21.54 21.78 21.67 21.85 22.17C21.9193 22.9914 21.9426 23.816 21.92 24.64H24.87ZM23.72 19.42C23.0711 18.8323 22.2434 18.4801 21.37 18.42C20.4164 18.3256 19.4578 18.2921 18.5 18.3199V21.3199C19.324 21.2973 20.1486 21.3207 20.97 21.39C21.47 21.46 21.57 21.56 21.6 21.59L23.72 19.47V19.42ZM18.5 18.27C17.5422 18.2421 16.5836 18.2755 15.63 18.3699C14.7563 18.4285 13.9281 18.781 13.28 19.3699L15.4 21.4899C15.4 21.4899 15.53 21.36 16.03 21.29C16.8514 21.2207 17.676 21.1973 18.5 21.22V18.22V18.27ZM15.12 32.77V24.64H12.12V32.77H15.12Z" fill="#5C5856"/>
<path d="M20.25 12.4399C20.25 12.9041 20.0656 13.3492 19.7374 13.6774C19.4092 14.0056 18.9641 14.1899 18.5 14.1899V17.1899C19.7598 17.1899 20.968 16.6895 21.8588 15.7987C22.7496 14.9079 23.25 13.6997 23.25 12.4399H20.25ZM18.5 14.1899C18.0359 14.1899 17.5908 14.0056 17.2626 13.6774C16.9344 13.3492 16.75 12.9041 16.75 12.4399H13.75C13.75 13.6997 14.2504 14.9079 15.1412 15.7987C16.032 16.6895 17.2402 17.1899 18.5 17.1899V14.1899ZM16.75 12.4399C16.75 11.9758 16.9344 11.5307 17.2626 11.2025C17.5908 10.8743 18.0359 10.6899 18.5 10.6899V7.68994C17.2402 7.68994 16.032 8.19038 15.1412 9.08118C14.2504 9.97197 13.75 11.1802 13.75 12.4399H16.75ZM18.5 10.6899C18.9641 10.6899 19.4092 10.8743 19.7374 11.2025C20.0656 11.5307 20.25 11.9758 20.25 12.4399H23.25C23.25 11.1802 22.7496 9.97197 21.8588 9.08118C20.968 8.19038 19.7598 7.68994 18.5 7.68994V10.6899Z" fill="#5C5856"/>
</svg>
